<svg width="66" height="28" viewBox="0 0 66 28" fill="none" xmlns="http://www.w3.org/2000/svg">
<g clip-path="url(#clip0_1_97)">
<path d="M66 21.4117H38.9869C38.9869 27.5198 27.7238 27.5198 27.7238 21.4117H1.34659e-09V20.9769C-2.16338e-05 19.9841 0.260661 19.0081 0.756951 18.1427L9.27017 3.28931C9.69152 2.55937 9.98769 2.0816 10.8437 2.0816H54.5802C55.0006 2.08162 55.4134 2.19101 55.7765 2.39861C56.1396 2.60621 56.44 2.90457 56.647 3.26322L65.0203 17.7654C65.6624 18.8776 65.9999 20.1338 66 21.4117Z" fill="#CF6439"/>
<path d="M40.1311 19.4639H38.8331C38.6499 19.466 38.4689 19.5039 38.3007 19.5753C38.1326 19.6467 37.9806 19.7502 37.8537 19.8798C37.7268 20.0094 37.6275 20.1625 37.5617 20.3301C37.4958 20.4978 37.4646 20.6766 37.47 20.8561V20.8706C37.4762 21.4499 37.3652 22.0247 37.1433 22.5617C36.9215 23.0986 36.5932 23.5871 36.1775 23.9989C35.7618 24.4107 35.2669 24.7376 34.7215 24.9607C34.1761 25.1838 33.591 25.2987 33 25.2987C32.409 25.2987 31.8239 25.1838 31.2785 24.9607C30.7331 24.7376 30.2382 24.4107 29.8225 23.9989C29.4068 23.5871 29.0785 23.0986 28.8567 22.5617C28.6348 22.0247 28.5238 21.4499 28.53 20.8706V20.8561C28.5354 20.6766 28.5042 20.4978 28.4383 20.3301C28.3725 20.1625 28.2732 20.0094 28.1463 19.8798C28.0194 19.7502 27.8674 19.6467 27.6993 19.5753C27.5311 19.5039 27.3501 19.466 27.1669 19.4639H1.98897C1.4618 19.4639 0.956198 19.6691 0.583252 20.0343C0.210305 20.3995 0.000522463 20.8949 0 21.4117C-1.61852e-08 21.9288 0.209537 22.4248 0.582526 22.7905C0.955515 23.1563 1.46141 23.3618 1.98897 23.3619H26.1857C26.704 24.7232 27.6343 25.8967 28.8519 26.7252C30.0695 27.5537 31.5163 27.9977 32.9985 27.9977C34.4807 27.9977 35.9275 27.5537 37.1452 26.7252C38.3628 25.8967 39.293 24.7232 39.8113 23.3619H64.0081C64.5356 23.3618 65.0415 23.1563 65.4145 22.7905C65.7875 22.4248 65.997 21.9288 65.997 21.4117C65.997 20.8946 65.7875 20.3987 65.4145 20.033C65.0415 19.6674 64.5356 19.462 64.0081 19.462L40.1311 19.4639Z" fill="#C84C38"/>
<path d="M64.011 19.4639H38.8331C38.6499 19.466 38.4689 19.5039 38.3007 19.5753C38.1326 19.6467 37.9806 19.7502 37.8537 19.8798C37.7268 20.0094 37.6275 20.1625 37.5617 20.3302C37.4958 20.4978 37.4646 20.6766 37.47 20.8562V20.8706C37.4762 21.4499 37.3652 22.0247 37.1433 22.5617C36.9215 23.0986 36.5932 23.5871 36.1775 23.9989C35.7618 24.4107 35.2669 24.7376 34.7215 24.9607C34.1761 25.1838 33.591 25.2987 33 25.2987C32.409 25.2987 31.8239 25.1838 31.2785 24.9607C30.7331 24.7376 30.2382 24.4107 29.8225 23.9989C29.4068 23.5871 29.0785 23.0986 28.8567 22.5617C28.6348 22.0247 28.5238 21.4499 28.53 20.8706V20.8562C28.5354 20.6766 28.5042 20.4978 28.4383 20.3302C28.3725 20.1625 28.2732 20.0094 28.1463 19.8798C28.0194 19.7502 27.8674 19.6467 27.6993 19.5753C27.5311 19.5039 27.3501 19.466 27.1669 19.4639H1.98897" stroke="black" stroke-linecap="round" stroke-linejoin="round"/>
<path d="M61.2528 15.7113H4.74719L12.09 2.99946C12.407 2.45449 12.9196 2.04477 13.528 1.85021C19.7999 -0.178744 26.2424 -0.536713 32.9997 2.17435C38.8272 -0.486956 45.3968 -0.241063 52.4414 1.86663C53.0703 2.05378 53.6019 2.47032 53.9267 3.03038L61.2528 15.7113Z" fill="white"/>
<path d="M61.2513 17.7094H4.74867V15.7094C13.5497 10.6853 22.9519 10.6056 32.9983 15.2823C32.9993 15.2828 33.0004 15.2831 33.0015 15.2831C33.0026 15.2831 33.0037 15.2828 33.0047 15.2823C42.231 10.6699 51.8791 10.5515 61.2543 15.7094L61.2513 17.7094Z" fill="#F5A562"/>
<path d="M33.0002 2.17242V15.2398" stroke="black" stroke-linecap="round" stroke-linejoin="round"/>
<path d="M61.2528 15.7113C52.092 10.6718 42.6706 10.5906 33.0002 15.2418C22.5227 10.4549 13.1466 10.8046 4.74719 15.7113L12.09 2.99946C12.407 2.45449 12.9196 2.04477 13.528 1.85021C19.7999 -0.178744 26.2424 -0.536713 32.9997 2.17435C38.8272 -0.486956 45.3968 -0.241063 52.4414 1.86663C53.0703 2.05378 53.6019 2.47032 53.9267 3.03038L61.2528 15.7113Z" stroke="black" stroke-linecap="round" stroke-linejoin="round"/>
<path d="M15.4209 4.76949C19.0957 3.85888 22.9309 3.7589 26.65 4.47674C26.9599 4.53665 27.0935 4.07094 26.781 4.01055C22.9757 3.27355 19.0509 3.37371 15.2898 4.3038C15.2268 4.32084 15.1733 4.3617 15.141 4.41742C15.1088 4.47314 15.1004 4.53914 15.1178 4.60089C15.1352 4.66264 15.1769 4.71511 15.2337 4.74672C15.2906 4.77834 15.3579 4.78653 15.4209 4.76949Z" fill="black"/>
<path d="M24.9044 7.36751C21.6999 6.81439 18.4205 6.82502 15.2198 7.39891C14.9079 7.45447 15.0399 7.92017 15.3504 7.86462C18.4647 7.30713 21.6553 7.29649 24.7734 7.83321C25.0838 7.88684 25.2169 7.42162 24.9044 7.36751Z" fill="black"/>
<path d="M50.7102 4.3038C46.9491 3.37371 43.0243 3.27355 39.219 4.01055C38.908 4.07094 39.0396 4.53665 39.35 4.47674C43.0691 3.7589 46.9043 3.85888 50.5791 4.76949C50.6421 4.78653 50.7094 4.77834 50.7663 4.74672C50.8231 4.71511 50.8648 4.66264 50.8822 4.60089C50.8996 4.53914 50.8912 4.47314 50.859 4.41742C50.8267 4.3617 50.7732 4.32084 50.7102 4.3038Z" fill="black"/>
<path d="M50.7807 7.3989C47.5798 6.825 44.3002 6.81437 41.0956 7.3675C40.7836 7.42112 40.9157 7.88683 41.2266 7.8332C44.3447 7.29648 47.5353 7.30712 50.6496 7.8646C50.9596 7.92016 51.0931 7.45494 50.7807 7.3989Z" fill="black"/>
</g>
<defs>
<clipPath id="clip0_1_97">
<rect width="66" height="28" fill="white"/>
</clipPath>
</defs>
</svg>
