<svg width="64" height="31" viewBox="0 0 64 31" fill="none" xmlns="http://www.w3.org/2000/svg">
<g clip-path="url(#clip0_1_163)">
<path d="M55.8384 23.4141L56.0018 13.5782C56.0164 12.6691 55.7077 11.785 55.1322 11.0875C54.5567 10.3901 53.7528 9.92581 52.8675 9.77959L32.2542 6.36356" stroke="black" stroke-linecap="round" stroke-linejoin="round"/>
<path d="M58.2024 31L53.292 30.9163L54.4873 23.6863C54.559 23.3758 54.7336 23.0995 54.9818 22.9035C55.2301 22.7075 55.5371 22.6037 55.8518 22.6093C56.1667 22.6146 56.4702 22.7292 56.7119 22.934C56.9535 23.1387 57.1185 23.4213 57.1794 23.7345L58.2024 31Z" fill="#C84C38"/>
<path d="M33.3087 0.143713L62.3504 6.45641C64.0115 6.81647 64.7077 9.13703 63.0577 9.51194L33.3602 15.015C32.4224 15.2211 31.4518 15.2211 30.514 15.015L1.01541 9.72168C-0.634576 9.34722 -0.136826 6.81782 1.52382 6.45686L30.5655 0.143713C31.4702 -0.0475686 32.404 -0.0475686 33.3087 0.143713Z" fill="#C84C38"/>
<path d="M33.043 2.14331L62.0821 8.45646C63.7427 8.81651 63.7609 10.0515 62.1109 10.426L33.0919 17.0146C32.154 17.2207 31.1835 17.2207 30.2457 17.0146L1.22706 10.4264C-0.422921 10.0515 -0.404719 8.81742 1.25637 8.45646L30.2981 2.14331C31.2033 1.95223 32.1377 1.95223 33.043 2.14331Z" fill="#D16C39"/>
<path d="M51.0914 25.0784H13.0529V10.8179C13.0529 3.07264 51.1012 3.07264 51.1012 10.8179L51.0914 25.0784Z" fill="#CF6439"/>
<path d="M51.0914 25.0784H13.0529V10.8179C13.0529 3.07264 51.1012 3.07264 51.1012 10.8179L51.0914 25.0784Z" stroke="black" stroke-linecap="round" stroke-linejoin="round"/>
<path d="M38.3924 17.6851C38.3924 17.6851 44.2832 17.8786 49.0769 20.3653" stroke="black" stroke-linecap="round" stroke-linejoin="round"/>
<path d="M31.9984 30.3829C42.5096 30.3829 51.0306 28.0072 51.0306 25.0766C51.0306 22.146 42.5096 19.7703 31.9984 19.7703C21.4873 19.7703 12.9663 22.146 12.9663 25.0766C12.9663 28.0072 21.4873 30.3829 31.9984 30.3829Z" fill="#C84C38"/>
<path d="M14.7819 13.9288V22.7831" stroke="black" stroke-linecap="round" stroke-linejoin="round"/>
<path d="M31.9984 29.9329C42.2644 29.9329 50.5865 27.7587 50.5865 25.0766C50.5865 22.3946 42.2644 20.2203 31.9984 20.2203C21.7325 20.2203 13.4103 22.3946 13.4103 25.0766C13.4103 27.7587 21.7325 29.9329 31.9984 29.9329Z" stroke="#E68253" stroke-width="2" stroke-linecap="round" stroke-linejoin="round"/>
</g>
<defs>
<clipPath id="clip0_1_163">
<rect width="64" height="31" fill="white"/>
</clipPath>
</defs>
</svg>
