<svg width="69" height="45" viewBox="0 0 69 45" fill="none" xmlns="http://www.w3.org/2000/svg">
<g clip-path="url(#clip0_1_119)">
<path d="M20.0389 13.6136C16.578 18.3739 19.1675 25.198 19.1675 25.198L26.4156 32.8747L26.3555 45H40.901C41.3692 45.0001 41.8328 44.9082 42.265 44.7295C42.6973 44.5509 43.0897 44.2891 43.4196 43.9592C43.7495 43.6292 44.0104 43.2378 44.1872 42.8073C44.3641 42.3767 44.4535 41.9157 44.4501 41.4508L44.2603 14.61L20.0389 13.6136Z" fill="url(#paint0_linear_1_119)"/>
<path d="M38.0207 35.8574C37.1968 34.5281 36.7046 33.0225 36.585 31.4662C36.4817 29.2223 37.4384 27.0805 38.3744 25.0358" stroke="black" stroke-linecap="round" stroke-linejoin="round"/>
<path d="M2.79163 13.3972C20.7481 21.8205 41.7854 27.463 58.6818 30.4045L62.7199 17.3195C45.4035 14.1768 27.1472 8.73223 6.82919 0.312262C5.47548 -0.099815 4.13804 2.15518 2.74559 3.59828C2.14148 3.31149 1.55552 2.9884 0.990985 2.63082C-0.458178 6.19063 0.514294 12.7041 2.79163 13.3972Z" fill="white" stroke="black" stroke-linecap="round" stroke-linejoin="round"/>
<path d="M57.7284 20.8146C56.6133 24.428 57.0288 29.9037 58.6829 30.4056C60.337 30.9074 62.5801 28.3876 63.6952 24.7737C64.8103 21.1598 63.958 18.3377 62.721 17.3201C60.2769 15.3087 57.0395 18.0137 55.8396 20.5235C56.3899 20.63 56.8508 20.6992 57.7284 20.8146Z" fill="url(#paint1_linear_1_119)"/>
<path d="M57.7284 20.8146C56.6133 24.428 57.0288 29.9037 58.6829 30.4056C60.337 30.9074 62.5801 28.3876 63.6952 24.7737C64.8103 21.1598 63.958 18.3377 62.721 17.3201C60.2769 15.3087 57.0395 18.0137 55.8396 20.5235C56.4636 20.6534 57.0941 20.7506 57.7284 20.8146Z" stroke="black" stroke-linecap="round" stroke-linejoin="round"/>
<path d="M57.2697 22.9369C56.8907 25.5811 57.2029 28.8153 58.688 29.026C60.6689 29.3048 62.1051 27.1173 62.9069 24.5177L57.2697 22.9369Z" stroke="black" stroke-linecap="round" stroke-linejoin="round"/>
<path d="M2.74559 3.59772C19.5516 11.5894 37.9236 17.721 55.8385 20.5252" stroke="black" stroke-linecap="round" stroke-linejoin="round"/>
<path d="M37.0022 10.7179C31.6979 11.2476 28.844 19.2009 31.3156 24.0097L28.3622 23.1215C25.7682 17.7762 29.7732 9.64059 34.2055 9.82795L37.0022 10.7179Z" fill="#C84C38"/>
<path d="M30.0916 27.574C28.9686 26.0958 27.7699 25.6686 26.4454 24.7748C25.0203 23.8129 24.2051 22.464 23.0586 21.1988C21.7016 19.6871 19.8995 18.6385 17.9082 18.2022C17.3984 18.0939 16.871 18.0966 16.3624 18.21C15.8537 18.3234 15.3758 18.5448 14.9615 18.8591C14.6027 19.15 14.3459 19.5462 14.2277 19.991C13.8959 21.3767 18.1962 25.8928 19.1378 27.148C20.0101 28.3127 20.4809 29.7257 20.4803 31.1773V41.2562C20.4803 42.2491 20.8774 43.2013 21.5844 43.9035C22.2914 44.6056 23.2502 45 24.25 45H26.3555C26.3555 45 33.8282 32.4882 30.0916 27.574Z" fill="url(#paint2_linear_1_119)"/>
<path d="M30.3847 35.8579C31.2875 32.7392 31.5924 29.5452 30.0933 27.574C28.9703 26.0958 27.7716 25.6686 26.4471 24.7748C25.022 23.8129 24.2068 22.464 23.0602 21.1988C21.7033 19.6871 19.9011 18.6385 17.9098 18.2022C17.4001 18.0939 16.8727 18.0966 16.3641 18.21C15.8554 18.3234 15.3775 18.5448 14.9632 18.8591" stroke="black" stroke-linecap="round" stroke-linejoin="round"/>
<path d="M25.8395 3.09196C26.008 3.06129 26.1798 3.0362 26.3505 3.02226C28.6694 2.81037 30.9798 5.21536 29.4582 6.8001C28.6374 7.65492 28.0635 7.85064 27.0198 8.84487C23.9962 11.7266 23.1389 15.5279 22.6779 16.0777C21.3489 17.6602 19.2467 16.2087 18.8149 14.5336C18.0817 11.6898 19.3034 8.26774 21.0182 6.12092C22.2245 4.58821 23.9282 3.51787 25.8395 3.09196Z" fill="#D69685"/>
<path d="M30.0669 4.67336C30.2353 4.64213 30.4071 4.61759 30.5778 4.6031C32.8967 4.39176 35.2072 6.79675 33.685 8.38093C32.8647 9.23575 32.2903 9.43148 31.2471 10.4263C28.223 13.308 27.3662 17.1093 26.9052 17.6585C25.5762 19.241 23.474 17.7896 23.0423 16.1145C22.309 13.2707 23.5308 9.84913 25.2455 7.70231C26.4514 6.16915 28.1553 5.0987 30.0669 4.67336Z" fill="#D69685"/>
<path d="M23.0423 16.1145C22.309 13.2706 23.5308 9.84913 25.2455 7.70231C26.4514 6.16915 28.1553 5.0987 30.0669 4.67336" stroke="black" stroke-linecap="round" stroke-linejoin="round"/>
<path d="M33.685 8.38094C32.8647 9.23576 32.2903 9.43148 31.2471 10.4263" stroke="black" stroke-linecap="round" stroke-linejoin="round"/>
<path d="M34.42 6.04843C34.5884 6.01721 34.7602 5.99267 34.9309 5.97817C37.2498 5.76684 39.5603 8.17183 38.0381 9.75657C37.2178 10.6108 36.6434 10.8071 35.6002 11.8013C32.5761 14.6831 33.0539 17.1583 31.5829 18.6499C30.1303 20.1215 27.8272 19.1646 27.3954 17.4896C26.6621 14.6457 27.8839 11.2242 29.5986 9.07739C30.8046 7.54433 32.5085 6.47391 34.42 6.04843Z" fill="#D69685"/>
<path d="M27.3954 17.4896C26.6621 14.6457 27.8839 11.2242 29.5986 9.07739C30.8046 7.54433 32.5085 6.47391 34.42 6.04843" stroke="black" stroke-linecap="round" stroke-linejoin="round"/>
<path d="M39.1307 8.45788C39.2998 8.42618 39.4703 8.40292 39.6417 8.38818C42.9151 8.29171 44.4142 11.3848 44.4754 13.6297C43.0992 13.2952 42.2239 13.0805 41.7651 13.0231C38.252 12.5842 38.1156 17.0808 36.6086 18.8301C36.352 19.1646 36.0058 19.4207 35.6096 19.5692C35.2135 19.7176 34.7832 19.7524 34.3681 19.6696C33.9529 19.5868 33.5696 19.3897 33.2618 19.1008C32.9541 18.812 32.7344 18.443 32.6277 18.036C31.8939 15.19 33.7361 9.16382 39.1307 8.45788Z" fill="#D69685"/>
<path d="M32.6305 18.036C31.8967 15.1922 33.7389 9.16382 39.1335 8.45789" stroke="black" stroke-linecap="round" stroke-linejoin="round"/>
<path d="M20.0777 10.2244L21.2978 10.5718" stroke="black" stroke-linecap="round" stroke-linejoin="round"/>
<path d="M23.4785 5.25327L24.7239 5.69379" stroke="black" stroke-linecap="round" stroke-linejoin="round"/>
<path d="M24.8317 11.837C25.248 11.8811 25.6588 11.9665 26.0579 12.0919" stroke="black" stroke-linecap="round" stroke-linejoin="round"/>
<path d="M28.0826 6.91831C28.455 7.07079 28.8133 7.25532 29.1533 7.46979" stroke="black" stroke-linecap="round" stroke-linejoin="round"/>
<path d="M28.9052 13.3989C29.4528 13.5228 29.9923 13.6799 30.5205 13.8695" stroke="black" stroke-linecap="round" stroke-linejoin="round"/>
<path d="M32.804 7.91923L34.3037 8.50863" stroke="black" stroke-linecap="round" stroke-linejoin="round"/>
<path d="M34.7249 14.1193L35.6457 14.2091L35.3329 14.1913" stroke="black" stroke-linecap="round" stroke-linejoin="round"/>
<path d="M39.6978 9.49449C40.0554 9.70061 40.3595 9.98707 40.5855 10.3309" stroke="black" stroke-linecap="round" stroke-linejoin="round"/>
<path d="M33.5031 17.8938C33.1325 16.8344 33.8669 16.1981 34.9259 16.4312C35.7069 16.603 35.9309 17.8141 35.4261 18.3394" stroke="black" stroke-linecap="round" stroke-linejoin="round"/>
<path d="M28.3123 17.6686C28.0371 16.7596 28.5155 15.4381 29.6205 15.4559C29.9047 15.4447 30.182 15.5452 30.3922 15.7355C30.6024 15.9259 30.7286 16.1909 30.7434 16.473C30.7845 16.9733 30.6558 17.4729 30.3779 17.8922" stroke="black" stroke-linecap="round" stroke-linejoin="round"/>
<path d="M23.7363 16.3013C23.6612 15.9405 23.6513 15.5693 23.7071 15.205C23.7298 14.9367 23.8436 14.6841 24.0299 14.4885C24.2256 14.3145 24.4696 14.2031 24.73 14.1688C24.9903 14.1345 25.2551 14.1789 25.4897 14.2961C26.1921 14.6954 26.2808 15.955 25.8266 16.5684" stroke="black" stroke-linecap="round" stroke-linejoin="round"/>
<path d="M19.3573 14.677C19.2024 14.1528 19.0109 13.6091 19.4017 13.1312C19.5435 12.9686 19.7223 12.8419 19.9232 12.7614C20.1241 12.6809 20.3414 12.649 20.5572 12.6684C20.7416 12.6792 20.9217 12.728 21.086 12.8117C21.2504 12.8954 21.3953 13.0122 21.5117 13.1547C21.7064 13.429 21.8151 13.7544 21.8243 14.0898C21.8335 14.4253 21.7427 14.7561 21.5634 15.0405" stroke="black" stroke-linecap="round" stroke-linejoin="round"/>
</g>
<defs>
<linearGradient id="paint0_linear_1_119" x1="31.3437" y1="19.3887" x2="31.3437" y2="46.0985" gradientUnits="userSpaceOnUse">
<stop stop-color="#D69685"/>
<stop offset="0.994" stop-color="#BE6055"/>
</linearGradient>
<linearGradient id="paint1_linear_1_119" x1="63.1834" y1="20.5662" x2="55.2831" y2="23.0009" gradientUnits="userSpaceOnUse">
<stop offset="0.005" stop-color="#D16E38"/>
<stop offset="1" stop-color="#C84C38"/>
</linearGradient>
<linearGradient id="paint2_linear_1_119" x1="22.6737" y1="19.3862" x2="22.6737" y2="46.102" gradientUnits="userSpaceOnUse">
<stop stop-color="#D69685"/>
<stop offset="0.994" stop-color="#BE6055"/>
</linearGradient>
<clipPath id="clip0_1_119">
<rect width="69" height="45" fill="white"/>
</clipPath>
</defs>
</svg>
