<svg width="69" height="69" viewBox="0 0 69 69" fill="none" xmlns="http://www.w3.org/2000/svg">
<path opacity="0.2" d="M34.5 69C53.5538 69 69 53.5538 69 34.5C69 15.4462 53.5538 0 34.5 0C15.4462 0 0 15.4462 0 34.5C0 53.5538 15.4462 69 34.5 69Z" fill="#5756B3"/>
<mask id="mask0_1_16" style="mask-type:alpha" maskUnits="userSpaceOnUse" x="0" y="0" width="69" height="69">
<path d="M34.5 69C53.5538 69 69 53.5538 69 34.5C69 15.4462 53.5538 0 34.5 0C15.4462 0 0 15.4462 0 34.5C0 53.5538 15.4462 69 34.5 69Z" fill="#5756B3"/>
</mask>
<g mask="url(#mask0_1_16)">
<path d="M50.3045 30.4757C50.3045 37.9788 45.5326 46.9338 36.7184 46.9338C27.9042 46.9338 23.1326 37.9788 23.1326 30.4757C23.1326 26.8725 24.564 23.4169 27.1119 20.869C29.6597 18.3212 33.1153 16.8898 36.7186 16.8898C40.3218 16.8898 43.7774 18.3212 46.3253 20.869C48.8731 23.4169 50.3045 26.8725 50.3045 30.4757Z" fill="#EBA08C"/>
<path d="M24.6457 31.2563C25.3009 30.2573 25.7284 29.1264 25.8978 27.9438C26.1284 26.6479 26.1769 25.2419 25.5403 24.0886C25.3576 23.7238 25.071 23.4212 24.7165 23.2191C24.3856 23.0785 24.0211 23.0363 23.6668 23.0974C23.3125 23.1586 22.9834 23.3206 22.7187 23.5641C22.1972 24.0617 21.8212 24.6921 21.6314 25.3875C20.975 27.3837 21.0192 29.536 21.3915 31.5822C21.5691 32.5592 21.5322 33.2956 22.6637 32.8593C23.4656 32.528 24.154 31.9712 24.6457 31.2563Z" fill="#000035"/>
<path d="M49.3597 31.2563C48.7045 30.2573 48.277 29.1265 48.1076 27.9438C47.877 26.6479 47.8285 25.2419 48.4651 24.0886C48.6478 23.7238 48.9345 23.4212 49.2889 23.2191C49.6199 23.0785 49.9844 23.0363 50.3387 23.0975C50.6931 23.1587 51.0223 23.3206 51.287 23.5641C51.8086 24.0617 52.1845 24.6921 52.3744 25.3875C53.0307 27.3837 52.9866 29.536 52.6142 31.5822C52.4366 32.5592 52.4732 33.2956 51.342 32.8594C50.54 32.5282 49.8514 31.9713 49.3597 31.2563Z" fill="#000035"/>
<path d="M33.1574 29.7004C33.1575 29.9393 33.0867 30.1728 32.9541 30.3714C32.8214 30.5701 32.6328 30.7249 32.4122 30.8163C32.1915 30.9078 31.9487 30.9318 31.7144 30.8852C31.4801 30.8386 31.2649 30.7237 31.096 30.5548C30.9271 30.3859 30.812 30.1707 30.7654 29.9365C30.7188 29.7022 30.7427 29.4594 30.8341 29.2387C30.9255 29.018 31.0803 28.8294 31.2789 28.6966C31.4775 28.5639 31.711 28.4931 31.9498 28.4931C32.27 28.4931 32.5772 28.6203 32.8036 28.8467C33.0301 29.0731 33.1574 29.3802 33.1574 29.7004Z" fill="#000035"/>
<path d="M27.9055 28.9854C28.5511 27.8576 29.5081 26.9398 30.6618 26.3418C31.8155 25.7437 33.1171 25.4908 34.4108 25.6132" stroke="#000035" stroke-miterlimit="10"/>
<path d="M42.3397 30.9077C43.0065 30.9077 43.547 30.3672 43.547 29.7004C43.547 29.0336 43.0065 28.4931 42.3397 28.4931C41.6729 28.4931 41.1324 29.0336 41.1324 29.7004C41.1324 30.3672 41.6729 30.9077 42.3397 30.9077Z" fill="#000035"/>
<path d="M46.384 28.9854C45.7384 27.8576 44.7815 26.9398 43.6279 26.3417C42.4742 25.7437 41.1726 25.4908 39.879 25.6132" stroke="#000035" stroke-miterlimit="10"/>
<path d="M33.0065 38.0516C33.0065 38.0516 34.8679 40.3657 37.3329 40.3657C39.7979 40.3657 41.7097 37.3976 41.7097 37.3976" stroke="#000035" stroke-miterlimit="10"/>
<path d="M37.7009 56.9114C41.1769 56.9114 43.3068 54.2207 44.3675 52.3505C43.0458 51.675 42.0807 50.9534 41.7809 50.1428C40.6484 47.0784 41.1017 43.6133 41.1017 43.6133L37.3504 43.872L33.3321 43.6133C33.3321 43.6133 34.0524 47.0781 32.9198 50.1428C32.6012 51.0051 31.533 51.7672 30.0795 52.48C31.3033 54.1196 33.938 56.9114 37.7009 56.9114Z" fill="#EBA08C"/>
<path d="M57.2379 57.8044C54.8269 55.9964 49.5532 54.6052 45.8156 53.0203C44.5131 55.318 41.8962 58.6268 37.6235 58.6268C33.0566 58.6268 29.8426 55.2801 28.3154 53.2559C24.6292 54.7449 19.7539 56.0864 17.4632 57.8031C13.7322 60.6012 12 72.4604 12 72.4604H62.701C62.701 72.4604 60.9688 60.6025 57.2379 57.8044Z" fill="#5756B3"/>
<path d="M37.6222 58.6268C41.8948 58.6268 44.5118 55.318 45.8143 53.0203C45.298 52.8016 44.8123 52.5785 44.3661 52.3505C43.3054 54.2207 41.1755 56.9114 37.6996 56.9114C33.9367 56.9114 31.302 54.1199 30.0782 52.48C29.5378 52.7436 28.9424 53.0026 28.314 53.2559C29.8426 55.2801 33.0566 58.6268 37.6222 58.6268Z" fill="#071882"/>
<path d="M30.2084 45.0194C32.3565 46.2733 34.7962 46.9415 37.2835 46.9572C41.3667 46.9572 44.5325 43.9343 44.5325 43.9343" stroke="#000035" stroke-miterlimit="10"/>
<g style="mix-blend-mode:multiply" opacity="0.2">
<path d="M44.3022 37.0559C45.8869 37.0559 47.1716 36.0814 47.1716 34.8792C47.1716 33.6771 45.8869 32.7025 44.3022 32.7025C42.7176 32.7025 41.4329 33.6771 41.4329 34.8792C41.4329 36.0814 42.7176 37.0559 44.3022 37.0559Z" fill="#EBA08C"/>
</g>
<g style="mix-blend-mode:multiply" opacity="0.2">
<path d="M30.384 37.0559C31.9686 37.0559 33.2533 36.0814 33.2533 34.8792C33.2533 33.6771 31.9686 32.7025 30.384 32.7025C28.7993 32.7025 27.5146 33.6771 27.5146 34.8792C27.5146 36.0814 28.7993 37.0559 30.384 37.0559Z" fill="#EBA08C"/>
</g>
<path d="M36.9787 27.9797C36.9781 29.2718 37.1172 30.5602 37.3935 31.8224C37.6758 33.0927 38.3622 34.2372 39.3498 35.0845C38.7194 36.1198 37.8421 36.9826 36.7964 37.5956" stroke="#000035" stroke-miterlimit="10"/>
<path d="M52.4743 29.5758C53.8476 28.2516 54.9907 17.5549 54.3959 15.7611C54.175 16.5272 53.7622 17.2243 53.1965 17.7862C53.5099 16.9797 53.6972 16.1297 53.7517 15.2662C53.7828 13.4353 53.3903 11.6221 52.6047 9.96808C51.0544 11.0571 49.2097 11.6494 47.3152 11.6663C45.4298 11.7177 43.5124 11.6387 41.741 11.0054C42.274 10.4261 42.6825 9.74353 42.9411 9C41.2122 9.4903 39.386 9.52457 37.5856 9.51963C35.7852 9.51468 33.968 9.47613 32.2042 9.82936C30.3867 10.2043 28.7462 11.1747 27.5424 12.587C27.6649 11.6749 27.9819 10.4123 27.978 9.48964C27.2053 10.518 25.9265 11.0775 25.0902 12.0571C24.3999 12.8696 24.0602 13.9227 24.1455 14.9854C23.9478 14.7373 23.3949 14.6371 23.0723 14.6312C22.7497 14.6403 22.4305 14.7004 22.1267 14.8095C21.0977 15.127 20.0929 15.5179 19.1199 15.9792C20.0809 16.6812 21.2753 16.9862 22.4552 16.831C21.0521 17.8699 19.9275 19.6318 19.7984 21.3475C19.6692 23.0632 20.1454 28.6417 21.377 29.8707C22.8881 29.8309 24.6144 25.4755 25.7578 24.5087C26.9034 23.5389 27.6772 22.2019 27.9473 20.7254C29.7642 22.4589 32.1347 23.6349 34.6718 23.7239C34.3326 22.4655 33.6427 21.3294 32.6826 20.4479C34.1598 21.5205 35.7757 21.5827 37.615 21.6411C39.4542 21.6994 41.342 21.6295 43.0771 22.2276C45.0212 22.8978 48.0586 25.179 49.4109 26.7013" fill="#000035"/>
<path d="M53.9135 32.7605C53.712 33.727 53.2252 34.6108 52.5161 35.2977C52.0815 35.7529 51.5379 36.0897 50.9367 36.276C50.6594 36.3611 50.3661 36.3813 50.0797 36.335C49.7932 36.2886 49.5213 36.177 49.2849 36.0087C48.8595 35.6408 48.5737 35.1375 48.4757 34.5836C48.3514 33.8916 48.3682 33.1816 48.525 32.4962C48.6818 31.8108 48.9753 31.1642 49.3881 30.595C49.9482 29.7999 50.7443 29.1508 51.599 29.0434C53.3223 28.8259 54.2361 31.0461 53.9135 32.7605Z" fill="#EBA08C"/>
<g style="mix-blend-mode:multiply">
<path d="M49.0619 34.7777C49.4843 34.7508 49.8904 34.6048 50.2333 34.3566C50.2913 34.3246 50.3407 34.2791 50.3774 34.224C50.4141 34.1689 50.437 34.1058 50.4442 34.0399C50.4356 33.9669 50.4072 33.8976 50.3621 33.8396C50.13 33.4864 49.8383 33.1761 49.5001 32.9226C49.7215 32.3646 50.0091 31.8353 50.3568 31.3459C50.6947 30.8651 51.2042 30.5322 51.7803 30.4161C52.0623 30.3716 52.3511 30.4219 52.6015 30.559C52.8519 30.6962 53.0497 30.9124 53.1642 31.1739C53.1642 31.1739 53.9148 32.7598 52.1467 34.4762C50.2807 36.2875 49.0619 34.7777 49.0619 34.7777Z" fill="#EBA08C"/>
</g>
<path d="M53.1629 31.1746C53.0484 30.9131 52.8505 30.6968 52.6001 30.5597C52.3497 30.4226 52.061 30.3723 51.779 30.4167C51.2029 30.5329 50.6934 30.8658 50.3555 31.3466C50.0078 31.8359 49.7202 32.3653 49.4988 32.9233C49.837 33.1768 50.1287 33.487 50.3608 33.8403C50.4059 33.8983 50.4343 33.9676 50.4428 34.0406C50.4357 34.1064 50.4128 34.1696 50.3761 34.2247C50.3393 34.2798 50.2899 34.3253 50.2319 34.3573C49.8891 34.6055 49.4829 34.7515 49.0605 34.7784" stroke="#000035" stroke-width="0.5" stroke-miterlimit="10"/>
<path d="M19.1489 32.7605C19.3504 33.7269 19.837 34.6107 20.546 35.2977C20.9807 35.7529 21.5244 36.0897 22.1256 36.276C22.403 36.3611 22.6963 36.3813 22.9827 36.335C23.2691 36.2887 23.5411 36.177 23.7774 36.0087C24.2029 35.6408 24.4886 35.1375 24.5864 34.5836C24.711 33.8913 24.6945 33.181 24.5378 32.4952C24.381 31.8094 24.0873 31.1624 23.6743 30.593C23.1141 29.7979 22.3181 29.1488 21.4633 29.0414C19.7397 28.8259 18.8263 31.0461 19.1489 32.7605Z" fill="#EBA08C"/>
<g style="mix-blend-mode:multiply">
<path d="M24.0002 34.7777C23.5779 34.7507 23.1719 34.6047 22.8291 34.3566C22.7711 34.3246 22.7217 34.2791 22.685 34.224C22.6483 34.1689 22.6254 34.1058 22.6182 34.0399C22.6268 33.967 22.655 33.8977 22.6999 33.8396C22.9322 33.4864 23.2239 33.1761 23.5622 32.9226C23.3407 32.3647 23.0531 31.8353 22.7055 31.3459C22.3676 30.865 21.8579 30.5322 21.2818 30.4161C20.9997 30.3716 20.711 30.4218 20.4605 30.559C20.2101 30.6961 20.0123 30.9124 19.8978 31.1739C19.8978 31.1739 19.1489 32.7605 20.9163 34.4769C22.7817 36.2875 24.0002 34.7777 24.0002 34.7777Z" fill="#EBA08C"/>
</g>
<path d="M19.8995 31.1746C20.0139 30.913 20.2118 30.6968 20.4622 30.5596C20.7126 30.4225 21.0014 30.3723 21.2834 30.4167C21.8596 30.5328 22.3693 30.8657 22.7072 31.3466C23.0548 31.836 23.3424 32.3653 23.5639 32.9233C23.2256 33.1768 22.9339 33.487 22.7016 33.8403C22.6567 33.8984 22.6285 33.9677 22.6199 34.0406C22.6271 34.1064 22.65 34.1696 22.6867 34.2247C22.7234 34.2798 22.7728 34.3253 22.8308 34.3573C23.1736 34.6054 23.5796 34.7514 24.0019 34.7784" stroke="#000035" stroke-width="0.5" stroke-miterlimit="10"/>
<g opacity="0.35">
<path d="M27.3984 14.2961C27.8733 15.2995 28.6325 16.1413 29.5817 16.717C30.527 17.2874 31.5466 17.7247 32.6115 18.0165C32.0068 17.0511 30.8456 15.9736 30.0529 15.1568C31.0743 16.2184 32.5241 16.7713 33.9739 17.0349C35.4238 17.2985 36.9065 17.2985 38.3755 17.4303C42.947 17.8406 47.6253 19.7303 50.2485 23.4968" stroke="white" stroke-width="0.5" stroke-miterlimit="10"/>
<path d="M34.7795 11.8897C36.5572 13.4491 38.7747 14.4186 41.1264 14.6648C40.3304 14.1442 39.5185 13.6911 38.8779 12.988C39.9946 13.7933 41.5156 13.5366 42.8903 13.4638C45.6958 13.3236 48.4706 14.1015 50.7944 15.6797" stroke="white" stroke-width="0.5" stroke-miterlimit="10"/>
<path d="M25.7485 17.46C25.6249 18.9911 25.1287 20.4688 24.3033 21.7642C23.4778 23.0597 22.3481 24.1337 21.0126 24.8926" stroke="white" stroke-width="0.5" stroke-miterlimit="10"/>
</g>
</g>
</svg>
